<svg width="20" height="21" viewBox="0 0 20 21" fill="none" xmlns="http://www.w3.org/2000/svg">
<path d="M10 0.5C4.4864 0.5 0 4.9864 0 10.5C0 16.0136 4.4864 20.5 10 20.5C15.5136 20.5 20 16.0136 20 10.5C20 4.9864 15.5136 0.5 10 0.5ZM10 19.25C5.17512 19.25 1.24995 15.3249 1.24995 10.5C1.24995 5.67512 5.17512 1.74995 10 1.74995C14.8249 1.74995 18.75 5.67474 18.75 10.5C18.75 15.3249 14.8249 19.25 10 19.25Z" fill="#4A4B68"/>
<path d="M13.75 9.87437H10.625L10.6249 4.87494C10.6249 4.53001 10.3449 4.25 9.99994 4.25C9.655 4.25 9.375 4.53 9.375 4.87494V10.4993C9.375 10.8443 9.655 11.1243 9.99994 11.1243H13.7499C14.0949 11.1243 14.3749 10.8443 14.3749 10.4993C14.3749 10.1543 14.0949 9.87425 13.7499 9.87425L13.75 9.87437Z" fill="#4A4B68"/>
</svg>
