<svg width="17" height="23" viewBox="0 0 17 23" fill="none" xmlns="http://www.w3.org/2000/svg">
<path d="M8.49998 0C3.81327 0 0 3.81301 0 8.49998C0 14.0326 7.66095 22.1068 7.98779 22.4474C8.26547 22.7386 8.73367 22.7386 9.01135 22.4474C9.3386 22.1067 17 14.033 17 8.49998C17 3.81327 13.187 0 8.50002 0H8.49998ZM8.49998 20.9117C6.79439 19.015 1.41659 12.7037 1.41659 8.49998C1.41659 4.59506 4.59412 1.41659 8.49998 1.41659C12.4058 1.41659 15.5834 4.59412 15.5834 8.49998C15.5834 12.7004 10.2051 19.0152 8.49998 20.9117Z" fill="#4A4B68"/>
<path d="M8.50006 3.5415C5.76669 3.5415 3.54199 5.76634 3.54199 8.49957C3.54199 11.2329 5.76682 13.4576 8.50006 13.4576C11.2333 13.4576 13.4581 11.2328 13.4581 8.49957C13.4581 5.76621 11.2333 3.5415 8.50006 3.5415ZM8.50006 12.0411C6.5472 12.0411 4.9585 10.4522 4.9585 8.49949C4.9585 6.54662 6.54732 4.95792 8.50006 4.95792C10.4529 4.95792 12.0416 6.54675 12.0416 8.49949C12.0416 10.4524 10.453 12.0411 8.50006 12.0411Z" fill="#4A4B68"/>
</svg>
