<svg width="25" height="19" viewBox="0 0 25 19" fill="none" xmlns="http://www.w3.org/2000/svg">
<path d="M21.2198 0H3.75101C2.22824 0 0.992676 1.23536 0.992676 2.75834V15.5726C0.992676 17.0954 2.22803 18.331 3.75101 18.331H21.2486C22.7713 18.331 24.0069 17.0956 24.0069 15.5726L24.0067 2.75834C23.978 1.23556 22.7427 0 21.2197 0H21.2198ZM23.1162 15.5725C23.1162 16.6069 22.2542 17.4689 21.2198 17.4689H3.75101C2.71667 17.4689 1.85468 16.6069 1.85468 15.5725V2.75823C1.85468 1.7239 2.71667 0.861897 3.75101 0.861897H21.2486C22.2829 0.861897 23.1449 1.7239 23.1449 2.75823V15.5725H23.1162Z" fill="#1BC5BD"/>
<path d="M3.46361 8.36108C3.23373 8.36108 3.03271 8.5623 3.03271 8.79198V9.53895C3.03271 9.76882 3.23393 9.96984 3.46361 9.96984C3.69349 9.96984 3.8945 9.76862 3.8945 9.53895V8.79198C3.8945 8.5621 3.69348 8.36108 3.46361 8.36108Z" fill="#1BC5BD"/>
<path d="M12.5427 8.36108C12.3128 8.36108 12.1118 8.5623 12.1118 8.79198V9.53895C12.1118 9.76882 12.313 9.96984 12.5427 9.96984C12.7726 9.96984 12.9736 9.76862 12.9736 9.53895V8.79198C12.9736 8.5621 12.7726 8.36108 12.5427 8.36108Z" fill="#1BC5BD"/>
<path d="M21.6218 8.36108C21.3919 8.36108 21.1909 8.5623 21.1909 8.79198V9.53895C21.1909 9.76882 21.3921 9.96984 21.6218 9.96984C21.8517 9.96984 22.0527 9.76862 22.0527 9.53895V8.79198C22.0529 8.5621 21.8517 8.36108 21.6218 8.36108Z" fill="#1BC5BD"/>
<path d="M14.3533 8.73462C14.1234 8.73462 13.9224 8.93584 13.9224 9.16551C13.9224 9.39539 14.1236 9.5964 14.3533 9.5964C14.5831 9.5964 14.7841 9.39518 14.7841 9.16551C14.7843 8.93583 14.5831 8.73462 14.3533 8.73462Z" fill="#1BC5BD"/>
<path d="M5.27387 7.52734C5.04399 7.52734 4.84297 7.72856 4.84297 7.95824L4.84277 10.3718C4.84277 10.6017 5.04399 10.8027 5.27367 10.8027C5.50354 10.8027 5.70456 10.6015 5.70456 10.3718V7.98712C5.70476 7.72858 5.50374 7.52734 5.27387 7.52734Z" fill="#1BC5BD"/>
<path d="M16.1633 7.52734C15.9334 7.52734 15.7324 7.72856 15.7324 7.95824V10.3718C15.7324 10.6017 15.9336 10.8027 16.1633 10.8027C16.3932 10.8027 16.5942 10.6015 16.5942 10.3718V7.98712C16.5942 7.72858 16.4218 7.52734 16.1633 7.52734Z" fill="#1BC5BD"/>
<path d="M10.7331 6.0625C10.5033 6.0625 10.3022 6.26372 10.3022 6.49339V11.8375C10.3022 12.0673 10.5035 12.2684 10.7331 12.2684C10.963 12.2684 11.164 12.0671 11.164 11.8375V6.49339C11.164 6.26371 10.963 6.0625 10.7331 6.0625Z" fill="#1BC5BD"/>
<path d="M18.0022 6.0625C17.7723 6.0625 17.5713 6.26372 17.5713 6.49339V11.8375C17.5713 12.0673 17.7725 12.2684 18.0022 12.2684C18.2321 12.2684 18.4331 12.0671 18.4331 11.8375L18.4333 6.49339C18.4333 6.26371 18.2321 6.0625 18.0022 6.0625Z" fill="#1BC5BD"/>
<path d="M7.08421 5.54541C6.85433 5.54541 6.65332 5.74663 6.65332 5.9763V12.3547C6.65332 12.5846 6.85454 12.7856 7.08421 12.7856C7.31409 12.7856 7.5151 12.5844 7.5151 12.3547L7.5153 5.9763C7.5153 5.74642 7.34295 5.54541 7.08421 5.54541Z" fill="#1BC5BD"/>
<path d="M8.92259 4.45337C8.69271 4.45337 8.4917 4.65459 8.4917 4.88426V13.475C8.4917 13.7049 8.69292 13.9059 8.92259 13.9059C9.15247 13.9059 9.35348 13.7047 9.35348 13.475L9.35368 4.88426C9.35368 4.62572 9.15247 4.45337 8.92259 4.45337Z" fill="#1BC5BD"/>
<path d="M19.8118 6.72314C19.5819 6.72314 19.3809 6.92436 19.3809 7.15404V11.1764C19.3809 11.4062 19.5821 11.6073 19.8118 11.6073C20.0416 11.6073 20.2426 11.406 20.2426 11.1764V7.15404C20.2426 6.92436 20.0416 6.72314 19.8118 6.72314Z" fill="#1BC5BD"/>
</svg>
