<svg width="32" height="26" viewBox="0 0 32 26" fill="none" xmlns="http://www.w3.org/2000/svg">
<path fill-rule="evenodd" clip-rule="evenodd" d="M7.19118 8.46101C7.83442 8.46026 8.35568 7.93558 8.35642 7.28811C8.35568 6.64059 7.83447 6.1158 7.19118 6.11487H6.97282V5.77028C6.97282 5.58268 6.97282 5.4306 7.31028 5.4306L26.6543 5.4306C26.8407 5.4306 26.9918 5.58268 26.9918 5.77028V19.21C26.9918 19.3976 26.8407 19.5497 26.6543 19.5497H7.31028C7.12391 19.5497 6.97282 19.3976 6.97282 19.21V18.65H7.19118C7.83447 18.649 8.35568 18.1242 8.35642 17.4767C8.35568 16.8293 7.83442 16.3046 7.19118 16.3038H7.00562V13.5565H7.19118C7.83447 13.5556 8.35568 13.0308 8.35642 12.3833C8.35568 11.7357 7.83447 11.211 7.19118 11.21H7.00562L7.00562 8.46101H7.19118ZM5.86329 19.21V18.65H5.21031C4.78922 18.6572 4.39702 18.4352 4.18438 18.0693C3.97174 17.7033 3.97174 17.2504 4.18438 16.8845C4.39702 16.5186 4.78922 16.2966 5.21031 16.3038H5.86329V13.5565H5.21031C4.56658 13.5565 4.04473 13.0312 4.04473 12.3833C4.04473 11.7353 4.56658 11.21 5.21031 11.21H5.86329V8.46101H5.21031C4.78922 8.46823 4.39702 8.24623 4.18438 7.88031C3.97174 7.5144 3.97174 7.06148 4.18438 6.69556C4.39702 6.32965 4.78922 6.10765 5.21031 6.11487H5.86329V5.77028C5.86329 4.59748 5.86329 4.28297 6.87566 4.28297H26.9918C27.5509 4.28297 27.9999 4.47887 27.9999 5.04166V19.5497C27.9999 20.4465 27.7736 20.6936 27.1652 20.6936H6.87566C5.86329 20.6936 5.86329 19.7728 5.86329 19.21ZM5.21031 16.9832H6.18552C6.19057 16.9834 6.19564 16.9835 6.20075 16.9835C6.20585 16.9835 6.21127 16.9834 6.217 16.9832H7.19118C7.45706 16.9902 7.66898 17.2092 7.66898 17.4769C7.66898 17.7446 7.45706 17.9636 7.19118 17.9706H5.21031C4.9394 17.9704 4.71983 17.7494 4.71965 17.4767C4.72002 17.2042 4.93953 16.9834 5.21031 16.9832ZM6.6519 11.8894C6.65763 11.8896 6.66306 11.8897 6.66816 11.8897C6.67326 11.8897 6.67834 11.8896 6.68338 11.8894H7.19118C7.46217 11.8894 7.68184 12.1105 7.68184 12.3833C7.68184 12.656 7.46217 12.8772 7.19118 12.8772H6.217C6.21127 12.8769 6.20585 12.8768 6.20075 12.8768C6.19564 12.8768 6.19057 12.8769 6.18552 12.8772H5.21031C4.9394 12.877 4.71983 12.656 4.71965 12.3833C4.71983 12.1106 4.9394 11.8896 5.21031 11.8894H6.6519ZM6.20075 6.79592C6.18929 6.79592 6.17796 6.79534 6.1668 6.79422H5.21031C4.9394 6.79441 4.71983 7.01542 4.71965 7.28811C4.72002 7.56067 4.93953 7.78147 5.21031 7.78166H7.19118C7.45706 7.77464 7.66898 7.55566 7.66898 7.28794C7.66898 7.02022 7.45706 6.80124 7.19118 6.79422H6.23942C6.22517 6.79534 6.2122 6.79592 6.20075 6.79592ZM13.4349 9.31881L23.5402 9.31881C23.6952 9.31881 23.8209 9.16673 23.8209 8.97913C23.8209 8.79153 23.6952 8.63945 23.5402 8.63945L13.4349 8.63945C13.2799 8.63945 13.1542 8.79153 13.1542 8.97913C13.1542 9.16673 13.2799 9.31881 13.4349 9.31881ZM23.5402 12.6415L13.4349 12.6415C13.2799 12.6415 13.1542 12.4894 13.1542 12.3018C13.1542 12.1143 13.2799 11.9622 13.4349 11.9622L23.5402 11.9622C23.6952 11.9622 23.8209 12.1143 23.8209 12.3018C23.8209 12.4894 23.6952 12.6415 23.5402 12.6415ZM13.4349 15.9642H23.5402C23.6952 15.9642 23.8209 15.8122 23.8209 15.6246C23.8209 15.437 23.6952 15.2849 23.5402 15.2849H13.4349C13.2799 15.2849 13.1542 15.437 13.1542 15.6246C13.1542 15.8122 13.2799 15.9642 13.4349 15.9642Z" fill="#4A4B68"/>
</svg>
