<svg width="20" height="21" viewBox="0 0 20 21" fill="none" xmlns="http://www.w3.org/2000/svg">
<path d="M19.3747 4.41828H5.62503V3.47836C5.62503 1.92778 4.36317 0.665771 2.81259 0.665771C1.26201 0.665771 0 1.92778 0 3.47836V16.9158C0 16.9214 0.00311275 16.9264 0.00311275 16.9321C0.0120065 18.992 1.69008 20.6658 3.75251 20.6658H19.3749C19.7198 20.6658 19.9998 20.3864 19.9998 20.0408L19.9999 5.04347C19.9999 4.6978 19.7199 4.41839 19.3748 4.41839L19.3747 4.41828ZM1.24986 3.47836C1.24986 2.61642 1.9511 1.91575 2.81248 1.91575C3.67366 1.91575 4.37494 2.61642 4.37494 3.47836V13.2149C3.25493 13.0268 2.06616 13.3906 1.25001 14.1206L1.24986 3.47836ZM18.7498 19.4157H3.7524C2.37359 19.4157 1.25241 18.2945 1.25241 16.9157C1.25241 15.1319 3.07988 13.9095 4.75485 14.622C5.13492 14.7845 5.59293 14.5301 5.62048 14.0852C5.62166 14.0683 5.62551 14.0521 5.62551 14.0352V5.66813H18.7503V19.4156L18.7498 19.4157Z" fill="#4A4B68"/>
<path d="M8.74993 9.4181H15.625C15.9699 9.4181 16.2499 9.13869 16.2499 8.79317C16.2499 8.44751 15.9699 8.16824 15.625 8.16824L8.74993 8.16809C8.40501 8.16809 8.125 8.4475 8.125 8.79302C8.125 9.13869 8.405 9.4181 8.74993 9.4181Z" fill="#4A4B68"/>
<path d="M8.74993 13.1682H15.625C15.9699 13.1682 16.2499 12.8888 16.2499 12.5433C16.2499 12.1976 15.9699 11.9184 15.625 11.9184L8.74993 11.9182C8.40501 11.9182 8.125 12.1976 8.125 12.5431C8.125 12.8888 8.405 13.1682 8.74993 13.1682Z" fill="#4A4B68"/>
<path d="M15.6246 15.6681H10.6244C10.2795 15.6681 9.99951 15.9475 9.99951 16.293C9.99951 16.6387 10.2795 16.918 10.6244 16.918H15.6246C15.9695 16.918 16.2495 16.6385 16.2495 16.293C16.2497 15.9474 15.9697 15.6681 15.6246 15.6681Z" fill="#4A4B68"/>
</svg>
