<svg width="20" height="19" viewBox="0 0 20 19" fill="none" xmlns="http://www.w3.org/2000/svg">
<path fill-rule="evenodd" clip-rule="evenodd" d="M15.6293 13.4886C16.1875 13.3473 16.6998 13.0653 17.1179 12.6697L17.1179 12.6696C17.6057 12.207 17.9289 11.5975 18.0382 10.9343C18.1663 10.1951 18.009 9.43486 17.5977 8.80727C17.3753 8.48195 17.0911 8.20363 16.7612 7.98798C16.4165 7.77325 16.031 7.63256 15.6292 7.5742C15.0894 7.4781 14.7027 6.99916 14.722 6.45112V6.40259C14.7469 5.80326 14.4772 5.22942 13.9998 4.8657C13.5102 4.49277 12.8638 4.39631 12.2866 4.61042C12.0587 4.69951 11.8086 4.71487 11.5715 4.65374C11.3343 4.59291 11.1224 4.45928 10.9654 4.27128H10.9657L10.9436 4.24486C10.5059 3.72141 9.91387 3.35002 9.25248 3.18352C8.5926 3.01549 7.89622 3.06034 7.26341 3.31193C6.6309 3.5635 6.0936 4.00866 5.72927 4.58403C5.54834 4.85373 5.41317 5.15108 5.32838 5.46473C5.23807 5.77778 5.19783 6.10341 5.2095 6.42903V6.47326C5.21288 7.00503 4.83751 7.46367 4.31559 7.56535C3.92543 7.63663 3.55403 7.78653 3.2235 8.00587C2.90494 8.22302 2.63124 8.4995 2.41743 8.82051C2.01224 9.44076 1.85495 10.1906 1.97721 10.9211C2.09117 11.5788 2.4159 12.1815 2.90188 12.6386C3.31231 13.0445 3.82041 13.3372 4.37735 13.4887L4.37704 13.4883C4.47841 13.5148 4.54445 13.735 4.53125 14.0742C4.51804 14.4133 4.37704 14.6864 4.21423 14.6864C3.39132 14.648 2.59721 14.3712 1.92876 13.8895C1.06834 13.2822 0.445363 12.395 0.167351 11.3791C-0.160725 10.1728 -0.00252204 8.88567 0.607561 7.79452C1.13163 6.83699 1.96782 6.08778 2.97694 5.67184C2.99968 5.41379 3.04084 5.15759 3.10012 4.90539C3.22608 4.35152 3.44173 3.82189 3.73878 3.33776C4.34825 2.33202 5.26119 1.54564 6.34589 1.09161C7.453 0.631738 8.67807 0.537432 9.84267 0.823119C10.7514 1.05141 11.5875 1.50572 12.2735 2.14437C13.1753 2.01442 14.0948 2.18768 14.887 2.63741C15.6796 3.08708 16.2998 3.78722 16.651 4.62798C16.783 4.94839 16.8734 5.28414 16.9198 5.62759C17.9629 6.02079 18.8357 6.76725 19.3859 7.73706C20.0055 8.83654 20.164 10.1369 19.8261 11.3527C19.55 12.3705 18.927 13.2601 18.0647 13.8675C17.3981 14.3451 16.607 14.6191 15.7878 14.6557C15.6468 14.66 15.5236 14.475 15.4883 14.1448C15.4532 13.8146 15.5236 13.5151 15.6293 13.4886ZM10.8642 18.6678C10.6725 18.6798 10.4811 18.6466 10.3048 18.571L10.3048 18.571C10.0867 18.5252 9.88178 18.4303 9.70575 18.2936C9.74723 17.2885 9.89468 16.2904 10.1463 15.3163L10.146 15.3166C9.53838 15.3166 8.93504 15.3034 8.34492 15.2813H8.25245C7.94832 15.2699 7.6614 15.1372 7.45558 14.9133C7.24945 14.689 7.14163 14.392 7.15607 14.0878C7.16129 13.972 7.18341 13.8578 7.22212 13.7487C7.69852 12.2782 8.35038 10.8704 9.16416 9.55618C9.35462 9.55127 9.54324 9.59182 9.71465 9.67507C9.92538 9.71716 10.1241 9.80593 10.2959 9.93495C10.2559 10.9416 10.1082 11.9412 9.85564 12.9162C10.4633 12.9119 11.0755 12.9205 11.6657 12.9427H11.7538C12.0579 12.9543 12.3448 13.0858 12.5522 13.3088C12.7592 13.5316 12.8698 13.8277 12.8591 14.1318C12.8541 14.2489 12.8317 14.3647 12.793 14.4753C12.3194 15.9445 11.6718 17.3521 10.8642 18.6678Z" fill="#4A4B68"/>
</svg>
